<svg xmlns="http://www.w3.org/2000/svg" width="100%" height="100%" viewBox="0 0 24 24">
   <circle cx="12" cy="12" r="10" fill="#F7931A"/>
   <path fill="#FFFFFF" d="M17.29,10.29 C17.53,8.69 16.31,7.84 14.65,7.26 L15.19,5.1 L13.87,4.77 L13.35,6.88 C13,6.79 12.65,6.71 12.3,6.63 L12.83,4.51 L11.51,4.18 L10.97,6.34 C10.68,6.27 10.4,6.21 10.13,6.14 L10.13,6.13 L8.31,5.68 L7.96,7.09 C7.96,7.09 8.94,7.31 8.92,7.33 C9.45,7.46 9.55,7.82 9.53,8.1 L8.92,10.56 C8.96,10.57 9,10.58 9.06,10.6 C9.02,10.59 8.97,10.58 8.92,10.57 L8.06,14.02 C7.99,14.18 7.83,14.42 7.46,14.33 C7.47,14.35 6.5,14.09 6.5,14.09 L5.85,15.6 L7.56,16.03 C7.88,16.11 8.19,16.19 8.5,16.27 L7.95,18.46 L9.27,18.79 L9.81,16.63 C10.17,16.73 10.52,16.82 10.86,16.9 L10.32,19.05 L11.64,19.38 L12.19,17.2 C14.44,17.62 16.12,17.45 16.83,15.42 C17.4,13.79 16.8,12.84 15.62,12.23 C16.48,12.03 17.13,11.47 17.3,10.3 L17.3,10.3 Z M14.28,14.51 C13.87,16.14 11.12,15.26 10.23,15.04 L10.95,12.14 C11.84,12.36 14.98,12.8 14.28,14.51 Z M14.69,10.27 C14.32,11.76 12.03,11 11.28,10.82 L11.94,8.19 C12.68,8.38 15.08,8.72 14.69,10.27 L14.69,10.27 Z"/>
</svg>